<svg width="49" height="47" viewBox="0 0 49 47" fill="none" xmlns="http://www.w3.org/2000/svg">
<g clip-path="url(#clip0_3_89)">
<path opacity="0.05" d="M35.7036 0H35.5863C33.3674 0.0107379 31.1862 0.572541 29.2398 1.63462C27.2934 2.6967 25.6433 4.22557 24.4386 6.083C23.2339 4.22557 21.5837 2.6967 19.6374 1.63462C17.691 0.572541 15.5098 0.0107379 13.2909 0H13.1725C9.67678 0.0329365 6.33534 1.43985 3.87446 3.91494C1.41359 6.39004 0.0321813 9.73328 0.0304871 13.218C0.0304871 17.546 1.93157 23.687 5.63944 28.74C12.704 38.367 24.4386 46.789 24.4386 46.789C24.4386 46.789 36.1762 38.367 43.2378 28.74C46.9496 23.687 48.8467 17.546 48.8467 13.218C48.845 9.73311 47.4635 6.38972 45.0024 3.9146C42.5413 1.43947 39.1996 0.0326746 35.7036 0ZM40.5853 26.81C35.5863 33.629 27.9709 39.922 24.4336 42.671C20.9013 39.922 13.2859 33.617 8.28189 26.798C4.84389 22.119 3.30597 16.61 3.30597 13.218C3.30404 10.5977 4.3418 8.08302 6.19285 6.22254C8.04389 4.36206 10.558 3.3068 13.1866 3.287H13.2919C14.9819 3.28808 16.6431 3.72305 18.1154 4.55C19.5568 5.35828 20.7808 6.50214 21.6828 7.884C21.9825 8.34081 22.3917 8.71599 22.8734 8.97566C23.355 9.23533 23.894 9.37131 24.4416 9.37131C24.9892 9.37131 25.5282 9.23533 26.0098 8.97566C26.4915 8.71599 26.9007 8.34081 27.2004 7.884C28.1055 6.50473 29.3288 5.36153 30.7678 4.55C32.2402 3.72305 33.9013 3.28808 35.5913 3.287H35.6966C38.3252 3.3068 40.8393 4.36206 42.6904 6.22254C44.5414 8.08302 45.5792 10.5977 45.5772 13.218C45.2622 18.1335 43.5286 22.8536 40.5853 26.81Z" fill="black"/>
</g>
<defs>
<clipPath id="clip0_3_89">
<rect width="48.8162" height="46.788" fill="white" transform="translate(0.0304871)"/>
</clipPath>
</defs>
</svg>
